<svg width="10" height="15" viewBox="0 0 10 15" fill="none" xmlns="http://www.w3.org/2000/svg">
<path fill-rule="evenodd" clip-rule="evenodd" d="M9.50668 10.2288L5.31547 14.4714C5.05828 14.7318 4.64129 14.7318 4.3841 14.4714L0.192895 10.2288C-0.0642973 9.96841 -0.0642973 9.54631 0.192895 9.28596C0.450088 9.02561 0.867081 9.02561 1.12427 9.28596L4.1912 12.3905L4.1912 0.666667C4.1912 0.298477 4.48606 1.84549e-07 4.84978 1.71674e-07C5.21351 1.58799e-07 5.50837 0.298477 5.50837 0.666667L5.50837 12.3905L8.5753 9.28596C8.83249 9.02561 9.24948 9.02561 9.50668 9.28596C9.76387 9.5463 9.76387 9.96841 9.50668 10.2288Z" fill="#222222"/>
</svg>
